<?xml version="1.0" standalone="no"?>
<!DOCTYPE svg PUBLIC "-//W3C//DTD SVG 1.1//EN" "http://www.w3.org/Graphics/SVG/1.1/DTD/svg11.dtd">
<svg width="100%" height="100%" viewBox="0 0 512 512" version="1.1" xmlns="http://www.w3.org/2000/svg" xmlns:xlink="http://www.w3.org/1999/xlink" xml:space="preserve" style="fill-rule:evenodd;clip-rule:evenodd;stroke-linejoin:round;stroke-miterlimit:1.41421;">
    <g transform="matrix(1.03902,0,0,1.03902,-0.160267,-3.66069)">
        <circle cx="246.541" cy="249.91" r="233.71" style="fill:rgb(22,162,252);"/>
    </g>
    <g transform="matrix(1.0898,0,0,1.0898,-12.4296,-23.9856)">
        <g id="Layer1">
            <path d="M266.095,219.661C183.602,301.319 148.499,355.514 134.442,382.143L119.441,371.275L119.434,371.27C97.453,349.449 160.347,287.197 160.347,287.197L249.874,196.707L266.095,219.661Z" style="fill:rgb(156,88,51);"/>
            <path d="M266.095,219.661L277.31,235.534C277.31,235.534 242.975,269.548 216.502,298.107C190.029,326.666 171.738,368.061 167.727,384.426C163.716,400.791 150.881,394.053 150.881,394.053L134.442,382.143C148.535,355.478 183.632,301.295 266.095,219.661Z" style="fill:rgb(133,73,29);"/>
        </g>
        <g id="Layer3">
            <path d="M259.69,226.076C236.678,198.512 225.092,185.741 225.092,185.741C225.092,185.741 210.851,168.681 223.823,154.582C236.794,140.483 256.251,121.731 256.251,121.731C256.251,121.731 274.721,107.208 290.089,122.013C303.791,135.211 326.345,154.686 331.099,158.764C303.913,183.008 280.259,205.438 259.69,226.076Z" style="fill:rgb(253,99,80);"/>
            <path d="M331.099,158.764L331.964,159.517L332.297,159.819L332.535,160.039C335.352,162.608 348.981,174.154 368.889,177.213C350.3,232.565 298.925,259.321 278.477,268.01C277.261,256.389 273.154,242.326 262.375,229.281L262.173,229.026L259.69,226.076C280.256,205.421 303.917,182.974 331.099,158.764Z" style="fill:rgb(226,71,35);"/>
            <path d="M368.889,177.213C376.83,178.51 385.765,178.412 395.411,175.872C395.411,175.872 399.64,200.545 383.708,223.527C367.776,246.509 343.072,273.349 320.121,284.718C289.948,299.663 276.977,293.6 276.977,293.6C276.977,293.6 280.038,282.754 278.477,268.01C298.91,259.331 350.309,232.58 368.889,177.213Z" style="fill:white;"/>
        </g>
    </g>
</svg>
